<svg width="790" height="543" viewBox="0 0 790 543" fill="none" xmlns="http://www.w3.org/2000/svg">
<path d="M778.956 1.77926e-08H11.0314C8.10648 0.00266327 5.30209 1.16586 3.23386 3.23419C1.16563 5.30252 0.00256929 8.10697 0 11.032V531.407C0.00256594 534.332 1.16563 537.137 3.23386 539.205C5.30209 541.273 8.10648 542.437 11.0314 542.439H778.956C780.551 542.439 782.127 542.093 783.575 541.425C785.023 540.756 786.309 539.782 787.344 538.568C787.431 538.473 787.512 538.371 787.584 538.264C788.243 537.459 788.776 536.559 789.166 535.595C789.721 534.269 790.004 532.845 790 531.407V11.0321C789.997 8.10497 788.832 5.29887 786.761 3.23029C784.69 1.16171 781.883 -0.000166017 778.956 1.77926e-08V1.77926e-08ZM786.85 531.407C786.851 532.946 786.398 534.452 785.547 535.734C784.791 536.863 783.764 537.785 782.561 538.416C781.447 538.992 780.21 539.291 778.956 539.289H11.0314C8.94188 539.287 6.9386 538.455 5.46105 536.978C3.98351 535.5 3.15231 533.497 3.14977 531.407V11.0321C3.15229 8.94244 3.9835 6.93912 5.46105 5.46153C6.9386 3.98394 8.94187 3.15271 11.0314 3.15017H778.956C781.047 3.14991 783.053 3.97985 784.534 5.45767C786.014 6.93549 786.847 8.94039 786.85 11.0321V531.407Z" fill="#3F3D56"/>
<path d="M788.418 44.2155H1.57208V47.3692H788.418V44.2155Z" fill="#3F3D56"/>
<path d="M28.3785 33.1144C33.6037 33.1144 37.8395 28.8784 37.8395 23.6531C37.8395 18.4278 33.6037 14.1919 28.3785 14.1919C23.1533 14.1919 18.9174 18.4278 18.9174 23.6531C18.9174 28.8784 23.1533 33.1144 28.3785 33.1144Z" fill="#3F3D56"/>
<path d="M55.5791 33.1144C60.8043 33.1144 65.0401 28.8784 65.0401 23.6531C65.0401 18.4278 60.8043 14.1919 55.5791 14.1919C50.3538 14.1919 46.118 18.4278 46.118 23.6531C46.118 28.8784 50.3538 33.1144 55.5791 33.1144Z" fill="#3F3D56"/>
<path d="M82.7797 33.1144C88.0049 33.1144 92.2407 28.8784 92.2407 23.6531C92.2407 18.4278 88.0049 14.1919 82.7797 14.1919C77.5544 14.1919 73.3186 18.4278 73.3186 23.6531C73.3186 28.8784 77.5544 33.1144 82.7797 33.1144Z" fill="#3F3D56"/>
<path d="M350.408 312.324C340.945 306.164 336.239 291.849 338.557 278.758C340.876 265.666 349.607 254.39 360.074 249.528C365.166 247.233 370.748 246.239 376.318 246.635C381.889 247.031 387.274 248.804 391.99 251.796C401.588 257.666 415.163 260.88 419.722 272.623C423.224 281.648 418.782 299.973 414.067 308.738C409.992 316.314 402.249 319.779 394.975 321.285C386.927 322.926 378.62 322.82 370.617 320.973C362.613 319.126 355.1 315.582 348.584 310.581L350.408 312.324Z" fill="#2F2E41"/>
<path d="M345.472 381.856L337.907 394.9L336.907 396.62L335.453 399.15H313.149L314.654 396.62L318.551 390.054L327.634 374.721L337.919 378.832L345.472 381.856Z" fill="#FFB8B8"/>
<path d="M311.479 399.15L307.405 396.62L306.899 396.303L332.467 349.709C333.567 347.692 335.055 345.913 336.847 344.476C338.638 343.038 340.697 341.97 342.904 341.333C345.69 340.504 348.642 340.395 351.482 341.017C353.139 341.367 354.734 341.964 356.213 342.788C356.822 343.122 357.409 343.494 357.972 343.902C360.134 345.418 361.91 347.419 363.159 349.747C364.644 352.471 365.378 355.541 365.285 358.643C365.192 361.744 364.274 364.765 362.627 367.395L352.772 383.146L344.346 396.62L342.765 399.15H311.479V399.15Z" fill="#2F2E41"/>
<path d="M377.169 328.861C394.329 328.861 408.241 314.949 408.241 297.788C408.241 280.627 394.329 266.715 377.169 266.715C360.008 266.715 346.096 280.627 346.096 297.788C346.096 314.949 360.008 328.861 377.169 328.861Z" fill="#FFB8B8"/>
<path d="M408.361 399.15H338.514L338.831 398.252C338.653 397.708 338.489 397.164 338.337 396.62C338.173 396.051 338.033 395.469 337.907 394.899C336.772 389.603 336.776 384.126 337.92 378.832C341.779 359.88 357.175 344.484 357.175 344.484C357.441 344.281 357.706 344.091 357.972 343.902C360.262 342.225 362.747 340.831 365.373 339.752C376.809 335.008 388.803 336.918 396.861 339.373C399.668 340.221 402.411 341.266 405.072 342.497C406.008 342.94 406.514 343.219 406.514 343.219L407.311 367.522L408.272 396.62L408.361 399.15Z" fill="#5CD889"/>
<path d="M440.672 396.62L435.333 369.47L429.944 342.093C429.719 340.962 429.158 339.926 428.334 339.12C427.51 338.314 426.461 337.776 425.326 337.576L414.041 335.628L403.541 333.819C402.528 333.636 401.485 333.734 400.524 334.102C399.563 334.47 398.72 335.094 398.088 335.906C397.299 336.89 396.867 338.112 396.861 339.373C396.861 340.151 397.021 340.922 397.329 341.637C402.807 354.415 402.909 374.644 401.517 396.62C401.454 397.455 401.403 398.302 401.34 399.15H441.178L440.672 396.62Z" fill="#2F2E41"/>
<path d="M365.373 339.752C365.14 338.831 364.683 337.983 364.041 337.283C363.399 336.583 362.594 336.054 361.697 335.742C360.8 335.431 359.839 335.348 358.902 335.5C357.965 335.652 357.08 336.035 356.327 336.614L351.482 341.017L331.645 359.083C331.026 359.638 330.542 360.326 330.228 361.095C327.988 366.446 323.624 377.01 318.551 390.054C317.728 392.179 316.881 394.368 316.008 396.62C315.704 397.455 315.375 398.302 315.046 399.15H347.737C348.003 398.302 348.268 397.455 348.534 396.62C349.989 392.027 351.406 387.523 352.772 383.146C356.77 370.431 360.375 358.881 363.159 349.746C363.93 347.216 364.635 344.88 365.272 342.738C365.569 341.769 365.604 340.739 365.373 339.752V339.752Z" fill="#2F2E41"/>
<path d="M448.01 399.15H450.122L449.832 398.442L449.06 396.62L437.155 368.37L435.333 369.47L420.709 378.314L428.211 396.62L429.248 399.15H441.178H448.01Z" fill="#FFB8B8"/>
<path d="M435.941 345.964C434.33 341.748 431.151 338.318 427.07 336.391C422.988 334.465 418.32 334.191 414.041 335.628C413.495 335.809 412.958 336.02 412.435 336.26C409.438 337.597 406.884 339.761 405.072 342.497C404.333 343.59 403.725 344.766 403.263 346.002C402.442 348.146 402.054 350.432 402.121 352.727C402.188 355.023 402.71 357.282 403.655 359.374L407.311 367.522L420.392 396.62L421.531 399.15H448.01L449.831 398.442L454.563 396.62L455.221 396.367L435.941 345.964Z" fill="#2F2E41"/>
<path d="M401.573 262.1C402.656 262.425 403.816 262.384 404.873 261.982C405.93 261.581 406.825 260.843 407.42 259.881C407.984 258.901 408.315 257.805 408.389 256.677C408.464 255.549 408.279 254.42 407.848 253.374C406.967 251.288 405.577 249.455 403.806 248.042C401.795 246.222 399.346 244.955 396.699 244.363C395.377 244.078 394.008 244.081 392.687 244.372C391.366 244.662 390.123 245.233 389.042 246.046C387.98 246.886 387.193 248.024 386.782 249.313C386.37 250.603 386.353 251.986 386.732 253.286C387.536 255.619 389.715 257.182 391.892 258.347C396.21 260.652 400.971 262.006 405.856 262.317L401.573 262.1Z" fill="#2F2E41"/>
<path d="M407.617 296.86C402.622 297.549 403.263 295.006 401.263 290.377C399.262 285.748 396.584 280.253 391.563 279.784C387.448 279.4 384.058 282.689 380.724 285.132C374.783 289.486 366.776 291.617 359.889 289.005C353.002 286.393 348.216 278.185 350.829 271.298C351.643 269.396 352.838 267.682 354.341 266.261C355.844 264.84 357.622 263.743 359.567 263.038C363.467 261.651 367.61 261.076 371.74 261.347C380.927 261.64 389.937 263.947 398.135 268.103C403.793 270.978 409.301 275.091 411.448 281.064C413.594 287.036 415.006 295.429 408.869 297.045L407.617 296.86Z" fill="#2F2E41"/>
<path d="M399.019 245.673C396.55 241.375 398.588 235.478 402.628 232.606C406.669 229.734 412.088 229.452 416.909 230.604C421.677 231.805 426.046 234.239 429.576 237.661C433.107 241.083 435.676 245.373 437.025 250.101C439.071 257.618 437.855 265.691 439.587 273.286C440.511 277.334 442.253 281.151 444.707 284.501C447.162 287.85 450.276 290.662 453.857 292.763C457.439 294.864 461.413 296.209 465.535 296.716C469.656 297.223 473.838 296.881 477.822 295.711C483.011 294.187 488.285 290.482 488.796 285.097C489.333 291.281 487.923 297.477 484.763 302.819C481.604 308.162 476.853 312.382 471.175 314.89C464.489 317.679 457.031 317.861 449.789 317.675C445.069 317.554 440.242 317.27 435.888 315.444C432.875 314.07 430.167 312.108 427.922 309.674C425.678 307.241 423.941 304.383 422.815 301.269C420.598 295.011 419.999 288.294 421.075 281.742C421.787 276.645 423.205 271.65 423.601 266.52C423.998 261.389 423.246 255.911 420.083 251.852C416.92 247.793 410.878 245.719 406.381 248.221C404.574 249.226 403.116 250.868 401.152 251.517C399.188 252.166 396.405 251.026 396.584 248.965L399.019 245.673Z" fill="#2F2E41"/>
<path d="M611.057 399.15L611.298 396.62L618.433 322.382C620.772 320.55 623.285 318.953 625.936 317.612C640.623 310.211 654.793 313.753 662.459 316.815C664.491 317.61 666.454 318.571 668.329 319.687L672.505 396.62L672.644 399.15H611.057Z" fill="#5CD889"/>
<path d="M644.473 302.624C661.634 302.624 675.545 288.712 675.545 271.551C675.545 254.39 661.634 240.478 644.473 240.478C627.312 240.478 613.4 254.39 613.4 271.551C613.4 288.712 627.312 302.624 644.473 302.624Z" fill="#FFB8B8"/>
<path d="M669.684 290.497C671.994 288.063 673.527 284.997 674.089 281.689C674.651 278.38 674.217 274.98 672.841 271.919C671.465 268.859 669.209 266.277 666.362 264.502C663.514 262.727 660.203 261.839 656.849 261.951C652.553 262.094 648.504 263.853 644.403 265.143C638.189 267.257 631.558 267.854 625.066 266.885C618.535 265.87 612.641 262.39 608.599 257.161C604.754 251.877 603.556 244.548 606.272 238.605C609.407 231.744 616.731 227.963 623.621 224.891C626.399 223.5 629.367 222.525 632.429 221.997C633.963 221.742 635.533 221.807 637.041 222.187C638.549 222.567 639.962 223.255 641.192 224.206C643.128 225.871 644.263 228.374 646.369 229.818C648.741 231.442 651.822 231.399 654.682 231.686C661.125 232.331 667.219 234.922 672.154 239.115C677.088 243.308 680.629 248.904 682.305 255.158C683.982 261.413 683.715 268.029 681.539 274.128C679.364 280.227 675.383 285.519 670.126 289.3L669.684 290.497Z" fill="#2F2E41"/>
<path d="M630.565 330.466L625.936 317.612L625.646 316.811C625.509 316.431 625.288 316.087 624.998 315.806C624.709 315.524 624.359 315.312 623.976 315.186C623.592 315.06 623.185 315.022 622.785 315.076C622.384 315.131 622.002 315.275 621.666 315.499L616.409 319.004C616.409 319.004 582.694 319.004 579.986 339.233C579.949 339.55 579.898 339.904 579.86 340.283C579.858 340.301 579.854 340.318 579.847 340.334C579.506 341.662 573.142 366.257 567.677 396.62C567.525 397.455 567.373 398.303 567.221 399.15H640.484V399.15C642.868 368.649 641.535 340.29 630.565 330.466Z" fill="#2F2E41"/>
<path d="M717.96 396.62C713.962 365.472 708.244 340.283 708.244 340.283C708.193 339.904 708.143 339.55 708.104 339.233C705.41 319.004 671.695 319.004 671.695 319.004L666.441 315.501C666.105 315.277 665.722 315.132 665.321 315.078C664.921 315.024 664.514 315.062 664.13 315.188C663.746 315.315 663.396 315.527 663.107 315.809C662.817 316.091 662.596 316.435 662.459 316.815L657.538 330.466C646.569 340.29 645.235 368.648 647.619 399.149L647.62 399.15H718.276C718.175 398.302 718.061 397.455 717.96 396.62Z" fill="#2F2E41"/>
<path d="M124.52 325.696L117.005 396.62L116.74 399.15H96.4095C96.6498 398.328 96.89 397.48 97.1433 396.62C102.912 376.833 110.769 347.95 109.92 340.296C108.592 328.353 117.891 324.368 117.891 324.368L118.473 324.482L124.52 325.696Z" fill="#5CD889"/>
<path d="M157.308 303.805C174.468 303.805 188.38 289.893 188.38 272.732C188.38 255.571 174.468 241.659 157.308 241.659C140.147 241.659 126.235 255.571 126.235 272.732C126.235 289.893 140.147 303.805 157.308 303.805Z" fill="#A0616A"/>
<path d="M197.53 384.095C195.963 386.984 194.679 390.017 193.697 393.153C193.33 394.267 192.976 395.431 192.646 396.62C192.406 397.442 192.191 398.29 191.976 399.15H110.022C110.136 398.315 110.237 397.468 110.351 396.62C114.539 363.537 117.929 329.96 118.473 324.482C118.523 323.963 118.549 323.697 118.549 323.697C167.66 297.813 203.501 331.668 203.501 331.668C203.501 331.668 203.552 331.908 203.628 332.376C204.412 337.108 208.41 364.738 197.53 384.095Z" fill="#5CD889"/>
<path d="M193.697 393.153L188.232 381.438L189.56 334.982L203.628 332.376L204.121 332.288C211.393 336.515 217.02 343.078 220.087 350.91C222.82 357.742 228.019 378.288 232.409 396.62C232.612 397.467 232.814 398.315 233.016 399.15H196.492L195.316 396.62L193.697 393.153Z" fill="#5CD889"/>
<path d="M243.682 190.403H64.0101C60.1562 190.407 56.4616 191.94 53.7365 194.666C51.0113 197.391 49.4783 201.085 49.4736 204.939V384.614C49.4783 388.468 51.0113 392.162 53.7365 394.887C56.4616 397.613 60.1562 399.145 64.0101 399.15H243.682C247.536 399.148 251.232 397.615 253.957 394.89C256.683 392.164 258.215 388.468 258.217 384.614V204.939C258.215 201.085 256.683 197.389 253.957 194.663C251.232 191.938 247.536 190.405 243.682 190.403ZM255.687 384.614C255.685 387.797 254.419 390.849 252.168 393.1C249.917 395.351 246.865 396.617 243.682 396.62H64.0101C60.8273 396.615 57.7763 395.349 55.5258 393.098C53.2752 390.848 52.0087 387.796 52.0038 384.614V204.939C52.0087 201.756 53.2752 198.705 55.5258 196.455C57.7763 194.204 60.8273 192.938 64.0101 192.933H243.682C246.865 192.936 249.917 194.202 252.168 196.453C254.419 198.704 255.685 201.756 255.687 204.939V384.614ZM117.005 396.62L116.74 399.15H191.976C192.191 398.29 192.406 397.442 192.646 396.62H117.005Z" fill="#3F3D56"/>
<path d="M484.825 190.403H305.153C301.299 190.407 297.605 191.94 294.88 194.666C292.155 197.391 290.622 201.085 290.617 204.939V384.614C290.622 388.468 292.155 392.162 294.88 394.887C297.605 397.613 301.299 399.145 305.153 399.15H484.825C488.679 399.148 492.375 397.615 495.1 394.89C497.826 392.164 499.358 388.468 499.361 384.614V204.939C499.358 201.085 497.826 197.389 495.1 194.663C492.375 191.938 488.679 190.405 484.825 190.403V190.403ZM496.83 384.614C496.828 387.797 495.562 390.849 493.311 393.1C491.06 395.351 488.008 396.617 484.825 396.62H305.153C301.971 396.615 298.92 395.349 296.669 393.098C294.418 390.848 293.152 387.796 293.147 384.614V204.939C293.152 201.756 294.418 198.705 296.669 196.455C298.92 194.204 301.971 192.938 305.153 192.933H484.825C488.008 192.936 491.06 194.202 493.311 196.453C495.562 198.704 496.828 201.756 496.83 204.939V384.614ZM338.337 396.62C338.489 397.164 338.654 397.708 338.831 398.252L338.514 399.15H401.34C401.403 398.302 401.454 397.455 401.517 396.62H338.337Z" fill="#3F3D56"/>
<path d="M725.981 190.403H546.309C542.455 190.405 538.759 191.938 536.033 194.663C533.308 197.389 531.775 201.085 531.773 204.939V384.614C531.775 388.468 533.308 392.164 536.033 394.89C538.759 397.615 542.455 399.148 546.309 399.15H725.981C729.835 399.145 733.529 397.612 736.254 394.887C738.979 392.162 740.512 388.467 740.517 384.614V204.939C740.512 201.085 738.979 197.391 736.254 194.666C733.529 191.941 729.835 190.408 725.981 190.403ZM737.987 384.614C737.982 387.796 736.715 390.847 734.465 393.098C732.215 395.349 729.164 396.615 725.981 396.62H546.309C543.126 396.617 540.074 395.351 537.823 393.1C535.572 390.849 534.306 387.797 534.303 384.614V204.939C534.306 201.756 535.572 198.704 537.823 196.452C540.074 194.201 543.126 192.936 546.309 192.933H725.981C729.164 192.938 732.215 194.204 734.465 196.455C736.715 198.706 737.982 201.757 737.987 204.939V384.614ZM640.674 396.62C640.611 397.455 640.547 398.302 640.484 399.15H694.998C695.099 398.315 695.213 397.467 695.314 396.62H640.674Z" fill="#3F3D56"/>
<path d="M603.739 472.528H186.251C183.567 472.528 180.993 471.462 179.095 469.564C177.197 467.665 176.13 465.091 176.13 462.407C176.13 459.723 177.197 457.148 179.095 455.25C180.993 453.352 183.567 452.286 186.251 452.286H603.739C606.423 452.286 608.997 453.352 610.896 455.25C612.794 457.148 613.86 459.723 613.86 462.407C613.86 465.091 612.794 467.665 610.896 469.564C608.997 471.462 606.423 472.528 603.739 472.528Z" fill="#CCCCCC"/>
<path d="M486.716 137.267H303.274C300.59 137.267 298.016 136.201 296.118 134.303C294.22 132.405 293.153 129.83 293.153 127.146C293.153 124.462 294.22 121.888 296.118 119.989C298.016 118.091 300.59 117.025 303.274 117.025H486.716C489.4 117.025 491.974 118.091 493.872 119.989C495.771 121.888 496.837 124.462 496.837 127.146C496.837 129.83 495.771 132.405 493.872 134.303C491.974 136.201 489.4 137.267 486.716 137.267Z" fill="#5CD889"/>
<path d="M172.17 299.804C173.222 300.842 174.614 301.465 176.088 301.56C177.563 301.654 179.022 301.213 180.198 300.318C187.522 294.89 193.951 288.133 197.755 279.891C202.115 270.446 202.601 258.857 197.345 249.881C192.902 242.293 185.055 237.397 177.235 233.376C174.199 231.662 170.928 230.402 167.527 229.635C164.089 228.876 160.492 229.457 157.467 231.258C155.987 232.185 154.822 233.538 154.122 235.138C153.422 236.738 153.221 238.512 153.545 240.229C149.788 235.943 144.977 232.713 139.588 230.859C136.194 229.532 132.478 229.262 128.929 230.087C123.966 231.494 120.344 235.904 118.362 240.666C116.76 244.289 116.206 248.289 116.765 252.21C117.059 254.162 117.759 256.03 118.821 257.694C119.882 259.357 121.281 260.78 122.927 261.869C127.03 264.408 132.264 264.225 136.976 263.188C141.688 262.15 146.249 260.347 151.052 259.89C155.855 259.434 161.204 260.632 164.127 264.47C166.186 267.173 166.714 270.705 167.176 274.072L169.58 291.58C169.776 294.113 170.423 296.59 171.49 298.896C171.675 299.228 171.904 299.533 172.17 299.804Z" fill="#2F2E41"/>
</svg>
